# xmcd
# 
# Track frame offsets:
#     150
#     18732
#     45875
#     68085
# 
# Disc length: 1154
# 
# Revision: 0
# Processed by: cddbd v1.5.2PL0 Copyright (c) Steve Scherf et al.
# Submitted via: fre:ac v1.0.17
# 
DISCID=29048004
DTITLE=Disiz La Peste - J'Pète Les Plombs (Maxi)
DYEAR=2000
DGENRE=Rap
TTITLE0=J'Pète Les Plombs (Radio Edit)
TTITLE1=J'Pète Les Plombs (Version Originale)
TTITLE2=Bête De Bombe (C'que Les Gens Veulent Entendre)
TTITLE3=J'Pète Les Plombs (Instrumental)
EXTD=
EXTT0=
EXTT1=
EXTT2=
EXTT3=
PLAYORDER=
